<svg width="30" height="30" viewBox="0 0 30 30" fill="none" xmlns="http://www.w3.org/2000/svg">
<path d="M17.0246 27.972C17.0246 26.8549 15 14.8546 15 14.8546C15 14.8546 12.9754 26.8549 12.9754 27.972C12.9754 28.5099 13.1887 29.0257 13.5684 29.406C13.948 29.7863 14.463 30 15 30C15.5369 30 16.0519 29.7863 16.4316 29.406C16.8113 29.0257 17.0246 28.5099 17.0246 27.972Z" fill="white"/>
<path d="M12.9754 2.02795C12.9754 3.14506 15 15.1454 15 15.1454C15 15.1454 17.0246 3.14506 17.0246 2.02795C17.0246 1.4901 16.8113 0.974276 16.4316 0.593956C16.0519 0.213635 15.5369 -2.86102e-05 15 -2.86102e-05C14.463 -2.86102e-05 13.948 0.213635 13.5684 0.593956C13.1887 0.974276 12.9754 1.4901 12.9754 2.02795Z" fill="white"/>
<path d="M27.9721 12.9754C26.855 12.9754 14.8546 15 14.8546 15C14.8546 15 26.855 17.0246 27.9721 17.0246C28.5099 17.0246 29.0257 16.8113 29.4061 16.4316C29.7864 16.0519 30 15.5369 30 15C30 14.463 29.7864 13.9481 29.4061 13.5684C29.0257 13.1887 28.5099 12.9754 27.9721 12.9754Z" fill="white"/>
<path d="M2.02797 17.0246C3.14508 17.0246 15.1454 15 15.1454 15C15.1454 15 3.14508 12.9754 2.02797 12.9754C1.49011 12.9754 0.974298 13.1887 0.593978 13.5684C0.213658 13.9481 0 14.463 0 15C0 15.5369 0.213658 16.0519 0.593978 16.4316C0.974298 16.8113 1.49011 17.0246 2.02797 17.0246Z" fill="white"/>
<path d="M25.624 22.7349C24.8282 21.9449 14.8993 14.8993 14.8993 14.8993C14.8993 14.8993 21.9588 24.8086 22.7503 25.6029C22.939 25.7912 23.163 25.9406 23.4096 26.0425C23.6561 26.1444 23.9203 26.1969 24.1872 26.1969C24.454 26.1969 24.7183 26.1444 24.9648 26.0425C25.2113 25.9406 25.4353 25.7912 25.624 25.6029C25.8127 25.4146 25.9624 25.191 26.0645 24.9449C26.1666 24.6989 26.2192 24.4352 26.2192 24.1689C26.2192 23.9025 26.1666 23.6388 26.0645 23.3928C25.9624 23.1467 25.8127 22.9232 25.624 22.7349Z" fill="#99EA48"/>
<path d="M4.39709 7.24962C5.19138 8.04118 15.1006 15.1007 15.1006 15.1007C15.1006 15.1007 8.0551 5.17178 7.26511 4.37592C6.88478 3.99484 6.36897 3.78076 5.83111 3.78076C5.29325 3.78076 4.77741 3.99484 4.39709 4.37592C4.01677 4.757 3.8031 5.27385 3.8031 5.81277C3.8031 6.35169 4.01677 6.86854 4.39709 7.24962Z" fill="#99EA48"/>
<path d="M22.7503 4.37592C21.9588 5.17178 14.8993 15.1007 14.8993 15.1007C14.8993 15.1007 24.8282 8.04118 25.624 7.24962C26.0051 6.86854 26.2192 6.35169 26.2192 5.81277C26.2192 5.27385 26.0051 4.757 25.624 4.37592C25.243 3.99484 24.7261 3.78076 24.1872 3.78076C23.6483 3.78076 23.1314 3.99484 22.7503 4.37592Z" fill="#99EA48"/>
<path d="M7.26511 25.6029C8.0551 24.8086 15.1006 14.8993 15.1006 14.8993C15.1006 14.8993 5.19138 21.9449 4.39709 22.7349C4.20877 22.9232 4.05939 23.1467 3.95747 23.3928C3.85556 23.6388 3.8031 23.9025 3.8031 24.1689C3.8031 24.4352 3.85556 24.6989 3.95747 24.9449C4.05939 25.191 4.20877 25.4146 4.39709 25.6029C4.58541 25.7912 4.80897 25.9406 5.05502 26.0425C5.30107 26.1444 5.56479 26.1969 5.83111 26.1969C6.09743 26.1969 6.36113 26.1444 6.60718 26.0425C6.85322 25.9406 7.07679 25.7912 7.26511 25.6029Z" fill="#99EA48"/>
</svg>
